<svg xmlns="http://www.w3.org/2000/svg" viewBox="0 0 100 100">
    <path fill="#007FFF" d="M24.4,-30.1C31.2,-23.4,35.9,-15.3,35.7,-7.6C35.5,0.1,30.4,7.4,25.2,12.8C20,18.1,14.6,21.6,7.8,26.3C1,30.9,-7.2,36.6,-15.6,36.3C-24,36.1,-32.7,30,-36.3,21.9C-39.9,13.7,-38.5,3.6,-36.9,-6.6C-35.2,-16.9,-33.3,-27.2,-27.2,-33.9C-21,-40.7,-10.5,-43.9,-0.8,-42.9C8.8,-41.9,17.6,-36.7,24.4,-30.1Z" width="100%" height="100%" transform="translate(50 50)" stroke-width="0" style="transition: all 0.3s ease 0s;" stroke="#007FFF"></path>
</svg>